<?xml version="1.0" encoding="UTF-8" standalone="no"?>
<!-- Generator: Adobe Illustrator 16.0.0, SVG Export Plug-In . SVG Version: 6.00 Build 0)  -->

<svg
   xmlns:dc="http://purl.org/dc/elements/1.1/"
   xmlns:cc="http://creativecommons.org/ns#"
   xmlns:rdf="http://www.w3.org/1999/02/22-rdf-syntax-ns#"
   xmlns:svg="http://www.w3.org/2000/svg"
   xmlns="http://www.w3.org/2000/svg"
   xmlns:sodipodi="http://sodipodi.sourceforge.net/DTD/sodipodi-0.dtd"
   xmlns:inkscape="http://www.inkscape.org/namespaces/inkscape"
   version="1.1"
   id="Capa_1"
   x="0px"
   y="0px"
   width="336"
   height="480"
   viewBox="0 0 233.25356 333.21938"
   xml:space="preserve"
   inkscape:version="0.91 r13725"
   sodipodi:docname="redpepper.svg"><metadata
     id="metadata43"><rdf:RDF><cc:Work
         rdf:about=""><dc:format>image/svg+xml</dc:format><dc:type
           rdf:resource="http://purl.org/dc/dcmitype/StillImage" /><dc:title></dc:title></cc:Work></rdf:RDF></metadata><defs
     id="defs41" /><sodipodi:namedview
     pagecolor="#ffffff"
     bordercolor="#666666"
     borderopacity="1"
     objecttolerance="10"
     gridtolerance="10"
     guidetolerance="10"
     inkscape:pageopacity="0"
     inkscape:pageshadow="2"
     inkscape:window-width="1466"
     inkscape:window-height="1378"
     id="namedview39"
     showgrid="false"
     inkscape:zoom="0.65186406"
     inkscape:cx="-245.67421"
     inkscape:cy="191.55322"
     inkscape:window-x="832"
     inkscape:window-y="0"
     inkscape:window-maximized="0"
     inkscape:current-layer="g4182" /><g
     id="g4189"
     transform="matrix(0.92296537,-0.38488299,0.38488299,0.92296537,-59.104763,66.756963)"
     style="stroke-width:2.0826211;stroke-miterlimit:4;stroke-dasharray:none"><g
       id="g4182"
       style="stroke-width:2.0826211;stroke-miterlimit:4;stroke-dasharray:none"
       transform="translate(-8.068288,-2.7876109)"><g
         style="stroke-width:3.47103548;stroke-miterlimit:4;stroke-dasharray:none;stroke:none;fill:#bd0000;fill-opacity:1"
         id="g4196"
         transform="translate(-63.766326,-28.321766)"><g
           id="g4142"><g
             id="g4147"><path
               style="fill:#008200;fill-opacity:1;stroke:#039400;stroke-width:3.47103548;stroke-miterlimit:4;stroke-dasharray:none;stroke-opacity:1;stroke-linecap:round"
               d="m 317.02328,133.37766 c 1.862,6.326 -1.53128,11.85834 -6.04728,16.77934 -11.553,-5.503 -18.668,-23.803 -20.95,-30.561 0.589,-0.147 1.135,-0.208 1.627,-0.208 3.766,0 6.51,2.888 6.533,2.933 0.469,0.505 1.063,0.859 1.729,1 0.402,0.081 2.57,0.522 5.717,0.522 16.987,0 31.201,-11.136 42.069,-28.081 l 4.72884,-2.303233 c 21.725,-5.132 -35.96394,38.822103 -35.40656,39.918893 z"
               id="path4152" /><path
               style="fill:#c80000;fill-opacity:1;stroke:#c80000;stroke-width:6.942071;stroke-miterlimit:4;stroke-dasharray:none;stroke-opacity:1;stroke-linecap:round;stroke-linejoin:round"
               d="M 308.96554,157.09432 C 287.23454,206.12932 89.652,289.069 29.655,292.036 c 58.272702,-21.05763 108.4342,-59.69108 144.1201,-93.18999 21.60503,-20.28099 37.90424,-38.67999 47.48529,-50.15736 6.23664,-7.47101 9.62668,-12.00923 9.78061,-12.22465 0.811,-0.886 19.816,-21.755 38.179,-21.755 5.044,0 9.716,1.654 13.865,4.924 1.675,5.473 10.16701,29.46603 25.77036,37.27421"
               id="path7" /></g></g></g><path
         style="fill:#009700;fill-opacity:1;stroke:#009700;stroke-width:3.47103548;stroke-miterlimit:4;stroke-dasharray:none;stroke-opacity:1"
         d="m 244.78527,119.13014 c -4.39441,-3.15269 -9.08576,-9.26882 -12.61901,-16.45144 -0.97407,-1.98013 -4.47907,-10.291777 -4.40994,-10.45756 0.0262,-0.06273 0.44216,-0.06565 0.92444,-0.0065 1.27501,0.15644 3.791,1.417409 4.87025,2.440872 0.7004,0.664199 1.097,0.895394 2.13309,1.243504 3.64077,1.223227 11.97715,0.737359 17.6678,-1.029729 2.42602,-0.753339 6.66233,-2.592161 8.68702,-3.770717 7.9849,-4.647919 15.52438,-12.082077 21.75938,-21.455401 l 0.93986,-1.412929 2.33547,-1.103102 c 1.71623,-0.810622 2.67553,-1.135373 3.61798,-1.224809 0.70538,-0.06694 1.4084,-0.06921 1.56226,-0.005 0.65166,0.271747 -0.99724,2.899738 -3.75459,5.984022 -3.57812,4.002366 -8.95327,8.980438 -18.82898,17.43804 -4.36084,3.734649 -9.99224,8.557911 -12.5142,10.718369 -2.91855,2.50017 -4.66586,4.12103 -4.80674,4.45885 -0.12505,0.29989 -0.13479,0.86078 -0.0224,1.28947 0.32572,1.24218 0.40376,3.3012 0.17725,4.67611 -0.42665,2.58977 -2.2808,6.16316 -4.67677,9.01328 -0.68621,0.81628 -0.81259,0.88879 -1.27398,0.73098 -0.2817,-0.0963 -1.07739,-0.58068 -1.7682,-1.07629 z"
         id="path4199"
         inkscape:connector-curvature="0" /></g></g></svg>